<svg display="none" xmlns="http://www.w3.org/2000/svg">
    <symbol id="back-20" viewBox="0 0 20 20">
        <path d="M4.70999 10.9901L13.3097 19.5896C13.8567 20.1369 14.7437 20.1369 15.2905 19.5896C15.8373 19.0427 15.8373 18.1558 15.2905 17.6091L7.68104 9.99988L15.2902 2.39096C15.8371 1.84391 15.8371 0.957107 15.2902 0.410284C14.7434 -0.136761 13.8565 -0.136761 13.3095 0.410284L4.70977 9.00985C4.43635 9.28339 4.2998 9.64153 4.2998 9.99983C4.2998 10.3583 4.43662 10.7167 4.70999 10.9901Z"/>
    </symbol>
    <symbol id="icon-logo" viewBox="0 0 32 32">
<path fill="#ff868e" style="fill: var(--color1, #ff868e)" d="M2.345 16.137c0-0.763 0.618-1.381 1.381-1.381h2.071c0.763 0 1.381 0.618 1.381 1.381s-0.618 1.381-1.381 1.381h-2.071c-0.763 0-1.381-0.618-1.381-1.381z"></path>
<path fill="#ff868e" style="fill: var(--color1, #ff868e)" d="M3.726 19.589c-0.763 0-1.381-0.618-1.381-1.381v-2.071c0-0.763 0.618-1.381 1.381-1.381s1.381 0.618 1.381 1.381v2.071c0 0.763-0.618 1.381-1.381 1.381z"></path>
<path fill="#ff868e" style="fill: var(--color1, #ff868e)" d="M3.452 13.274c0 0.477-0.386 0.863-0.863 0.863s-0.863-0.386-0.863-0.863c0-0.477 0.386-0.863 0.863-0.863s0.863 0.386 0.863 0.863z"></path>
<path fill="#ff868e" style="fill: var(--color1, #ff868e)" d="M1.726 17.417c0 0.477-0.386 0.863-0.863 0.863s-0.863-0.386-0.863-0.863c0-0.477 0.386-0.863 0.863-0.863s0.863 0.386 0.863 0.863z"></path>
<path fill="#ff868e" style="fill: var(--color1, #ff868e)" d="M5.868 13.274c0 0.477-0.386 0.863-0.863 0.863s-0.863-0.386-0.863-0.863c0-0.477 0.386-0.863 0.863-0.863s0.863 0.386 0.863 0.863z"></path>
<path fill="#ff868e" style="fill: var(--color1, #ff868e)" d="M1.726 15c0 0.477-0.386 0.863-0.863 0.863s-0.863-0.386-0.863-0.863c0-0.477 0.386-0.863 0.863-0.863s0.863 0.386 0.863 0.863z"></path>
<path fill="#1d1d1d" style="fill: var(--color2, #1d1d1d)" d="M9.539 18.034v-3.698h1.734c0.291 0 0.528 0.056 0.712 0.167 0.188 0.111 0.327 0.262 0.419 0.454s0.138 0.41 0.138 0.655c0 0.249-0.054 0.469-0.161 0.66-0.103 0.191-0.253 0.341-0.448 0.448-0.191 0.103-0.419 0.155-0.683 0.155h-0.936v1.16h-0.775zM10.314 16.259h0.775c0.222 0 0.389-0.057 0.5-0.172 0.115-0.119 0.172-0.278 0.172-0.477 0-0.214-0.054-0.377-0.161-0.488-0.107-0.115-0.268-0.172-0.482-0.172h-0.804v1.309z"></path>
<path fill="#1d1d1d" style="fill: var(--color2, #1d1d1d)" d="M14.389 18.091c-0.471 0-0.844-0.117-1.12-0.35-0.276-0.237-0.413-0.595-0.413-1.074 0-0.433 0.115-0.775 0.345-1.028 0.233-0.257 0.58-0.385 1.039-0.385 0.421 0 0.743 0.111 0.965 0.333 0.226 0.218 0.339 0.505 0.339 0.861v0.494h-1.97c0.042 0.218 0.142 0.367 0.299 0.448 0.161 0.080 0.387 0.121 0.678 0.121 0.145 0 0.293-0.013 0.442-0.040 0.153-0.027 0.283-0.061 0.39-0.103v0.551c-0.126 0.057-0.274 0.1-0.442 0.126-0.168 0.031-0.352 0.046-0.551 0.046zM13.573 16.466h1.292v-0.149c0-0.157-0.046-0.279-0.138-0.367-0.092-0.092-0.247-0.138-0.465-0.138-0.256 0-0.436 0.052-0.54 0.155-0.1 0.103-0.149 0.27-0.149 0.5z"></path>
<path fill="#1d1d1d" style="fill: var(--color2, #1d1d1d)" d="M17.162 18.091c-0.314 0-0.547-0.082-0.701-0.247-0.149-0.165-0.224-0.389-0.224-0.672v-1.263h-0.385v-0.597h0.385v-0.586l0.775-0.23v0.815h0.689l-0.046 0.597h-0.643v1.212c0 0.149 0.034 0.253 0.103 0.31 0.069 0.054 0.176 0.080 0.322 0.080 0.107 0 0.218-0.019 0.333-0.057v0.534c-0.084 0.034-0.176 0.059-0.276 0.075-0.1 0.019-0.211 0.029-0.333 0.029z"></path>
<path fill="#1d1d1d" style="fill: var(--color2, #1d1d1d)" d="M19.127 18.091c-0.203 0-0.396-0.015-0.58-0.046-0.184-0.027-0.331-0.061-0.442-0.103v-0.643c0.134 0.054 0.285 0.096 0.454 0.126 0.168 0.027 0.323 0.040 0.465 0.040 0.191 0 0.325-0.011 0.402-0.034 0.080-0.023 0.121-0.075 0.121-0.155 0-0.092-0.061-0.159-0.184-0.201-0.119-0.042-0.297-0.101-0.534-0.178-0.249-0.084-0.44-0.186-0.574-0.304s-0.201-0.295-0.201-0.528c0-0.26 0.094-0.459 0.281-0.597 0.191-0.142 0.498-0.212 0.919-0.212 0.168 0 0.327 0.013 0.477 0.040 0.149 0.023 0.276 0.052 0.379 0.086v0.637c-0.103-0.050-0.222-0.086-0.356-0.109-0.134-0.027-0.258-0.040-0.373-0.040-0.165 0-0.297 0.011-0.396 0.034-0.096 0.023-0.144 0.073-0.144 0.149 0 0.084 0.052 0.144 0.155 0.178 0.107 0.034 0.272 0.086 0.494 0.155 0.218 0.065 0.389 0.136 0.511 0.212s0.209 0.168 0.258 0.276c0.050 0.103 0.075 0.233 0.075 0.39 0 0.551-0.402 0.827-1.206 0.827z"></path>
<path fill="#1d1d1d" style="fill: var(--color2, #1d1d1d)" d="M20.871 18.034v-3.698h1.734c0.291 0 0.528 0.056 0.712 0.167 0.188 0.111 0.327 0.262 0.419 0.454s0.138 0.41 0.138 0.655c0 0.249-0.054 0.469-0.161 0.66-0.103 0.191-0.253 0.341-0.448 0.448-0.191 0.103-0.419 0.155-0.683 0.155h-0.936v1.16h-0.775zM21.646 16.259h0.775c0.222 0 0.389-0.057 0.5-0.172 0.115-0.119 0.172-0.278 0.172-0.477 0-0.214-0.054-0.377-0.161-0.488-0.107-0.115-0.268-0.172-0.482-0.172h-0.804v1.309z"></path>
<path fill="#1d1d1d" style="fill: var(--color2, #1d1d1d)" d="M25.046 18.091c-0.172 0-0.333-0.031-0.482-0.092-0.145-0.065-0.264-0.159-0.356-0.281-0.088-0.126-0.132-0.283-0.132-0.471 0-0.268 0.094-0.482 0.281-0.643 0.191-0.161 0.473-0.241 0.844-0.241h0.804v-0.075c0-0.168-0.048-0.287-0.144-0.356-0.092-0.069-0.279-0.103-0.563-0.103-0.31 0-0.609 0.048-0.896 0.144v-0.546c0.126-0.050 0.279-0.090 0.459-0.121 0.184-0.034 0.383-0.052 0.597-0.052 0.41 0 0.725 0.084 0.947 0.253 0.226 0.165 0.339 0.431 0.339 0.798v1.728h-0.672l-0.040-0.247c-0.107 0.096-0.239 0.17-0.396 0.224s-0.354 0.080-0.591 0.080zM25.259 17.58c0.172 0 0.322-0.029 0.448-0.086s0.226-0.13 0.299-0.218v-0.431h-0.787c-0.302 0-0.454 0.124-0.454 0.373 0 0.241 0.165 0.362 0.494 0.362z"></path>
<path fill="#1d1d1d" style="fill: var(--color2, #1d1d1d)" d="M27.827 18.034l-0.718-2.722h0.775l0.413 1.769 0.454-1.418v-0.35h0.591l0.517 1.769 0.402-1.769h0.77l-0.712 2.722h-0.712l-0.523-1.591-0.534 1.591h-0.724z"></path>
</symbol>
</svg>