<svg aria-hidden="true" style="position: absolute; width: 0; height: 0; overflow: hidden;" version="1.1" xmlns="http://www.w3.org/2000/svg" xmlns:xlink="http://www.w3.org/1999/xlink">
<defs>
<symbol id="icon-logo" viewBox="0 0 32 32">
<path fill="#ff868e" style="fill: var(--color1, #ff868e)" d="M2.345 16.137c0-0.763 0.618-1.381 1.381-1.381h2.071c0.763 0 1.381 0.618 1.381 1.381s-0.618 1.381-1.381 1.381h-2.071c-0.763 0-1.381-0.618-1.381-1.381z"></path>
<path fill="#ff868e" style="fill: var(--color1, #ff868e)" d="M3.726 19.589c-0.763 0-1.381-0.618-1.381-1.381v-2.071c0-0.763 0.618-1.381 1.381-1.381s1.381 0.618 1.381 1.381v2.071c0 0.763-0.618 1.381-1.381 1.381z"></path>
<path fill="#ff868e" style="fill: var(--color1, #ff868e)" d="M3.452 13.274c0 0.477-0.386 0.863-0.863 0.863s-0.863-0.386-0.863-0.863c0-0.477 0.386-0.863 0.863-0.863s0.863 0.386 0.863 0.863z"></path>
<path fill="#ff868e" style="fill: var(--color1, #ff868e)" d="M1.726 17.417c0 0.477-0.386 0.863-0.863 0.863s-0.863-0.386-0.863-0.863c0-0.477 0.386-0.863 0.863-0.863s0.863 0.386 0.863 0.863z"></path>
<path fill="#ff868e" style="fill: var(--color1, #ff868e)" d="M5.868 13.274c0 0.477-0.386 0.863-0.863 0.863s-0.863-0.386-0.863-0.863c0-0.477 0.386-0.863 0.863-0.863s0.863 0.386 0.863 0.863z"></path>
<path fill="#ff868e" style="fill: var(--color1, #ff868e)" d="M1.726 15c0 0.477-0.386 0.863-0.863 0.863s-0.863-0.386-0.863-0.863c0-0.477 0.386-0.863 0.863-0.863s0.863 0.386 0.863 0.863z"></path>
<path fill="#1d1d1d" style="fill: var(--color2, #1d1d1d)" d="M9.539 18.034v-3.698h1.734c0.291 0 0.528 0.056 0.712 0.167 0.188 0.111 0.327 0.262 0.419 0.454s0.138 0.41 0.138 0.655c0 0.249-0.054 0.469-0.161 0.66-0.103 0.191-0.253 0.341-0.448 0.448-0.191 0.103-0.419 0.155-0.683 0.155h-0.936v1.16h-0.775zM10.314 16.259h0.775c0.222 0 0.389-0.057 0.5-0.172 0.115-0.119 0.172-0.278 0.172-0.477 0-0.214-0.054-0.377-0.161-0.488-0.107-0.115-0.268-0.172-0.482-0.172h-0.804v1.309z"></path>
<path fill="#1d1d1d" style="fill: var(--color2, #1d1d1d)" d="M14.389 18.091c-0.471 0-0.844-0.117-1.12-0.35-0.276-0.237-0.413-0.595-0.413-1.074 0-0.433 0.115-0.775 0.345-1.028 0.233-0.257 0.58-0.385 1.039-0.385 0.421 0 0.743 0.111 0.965 0.333 0.226 0.218 0.339 0.505 0.339 0.861v0.494h-1.97c0.042 0.218 0.142 0.367 0.299 0.448 0.161 0.080 0.387 0.121 0.678 0.121 0.145 0 0.293-0.013 0.442-0.040 0.153-0.027 0.283-0.061 0.39-0.103v0.551c-0.126 0.057-0.274 0.1-0.442 0.126-0.168 0.031-0.352 0.046-0.551 0.046zM13.573 16.466h1.292v-0.149c0-0.157-0.046-0.279-0.138-0.367-0.092-0.092-0.247-0.138-0.465-0.138-0.256 0-0.436 0.052-0.54 0.155-0.1 0.103-0.149 0.27-0.149 0.5z"></path>
<path fill="#1d1d1d" style="fill: var(--color2, #1d1d1d)" d="M17.162 18.091c-0.314 0-0.547-0.082-0.701-0.247-0.149-0.165-0.224-0.389-0.224-0.672v-1.263h-0.385v-0.597h0.385v-0.586l0.775-0.23v0.815h0.689l-0.046 0.597h-0.643v1.212c0 0.149 0.034 0.253 0.103 0.31 0.069 0.054 0.176 0.080 0.322 0.080 0.107 0 0.218-0.019 0.333-0.057v0.534c-0.084 0.034-0.176 0.059-0.276 0.075-0.1 0.019-0.211 0.029-0.333 0.029z"></path>
<path fill="#1d1d1d" style="fill: var(--color2, #1d1d1d)" d="M19.127 18.091c-0.203 0-0.396-0.015-0.58-0.046-0.184-0.027-0.331-0.061-0.442-0.103v-0.643c0.134 0.054 0.285 0.096 0.454 0.126 0.168 0.027 0.323 0.040 0.465 0.040 0.191 0 0.325-0.011 0.402-0.034 0.080-0.023 0.121-0.075 0.121-0.155 0-0.092-0.061-0.159-0.184-0.201-0.119-0.042-0.297-0.101-0.534-0.178-0.249-0.084-0.44-0.186-0.574-0.304s-0.201-0.295-0.201-0.528c0-0.26 0.094-0.459 0.281-0.597 0.191-0.142 0.498-0.212 0.919-0.212 0.168 0 0.327 0.013 0.477 0.040 0.149 0.023 0.276 0.052 0.379 0.086v0.637c-0.103-0.050-0.222-0.086-0.356-0.109-0.134-0.027-0.258-0.040-0.373-0.040-0.165 0-0.297 0.011-0.396 0.034-0.096 0.023-0.144 0.073-0.144 0.149 0 0.084 0.052 0.144 0.155 0.178 0.107 0.034 0.272 0.086 0.494 0.155 0.218 0.065 0.389 0.136 0.511 0.212s0.209 0.168 0.258 0.276c0.050 0.103 0.075 0.233 0.075 0.39 0 0.551-0.402 0.827-1.206 0.827z"></path>
<path fill="#1d1d1d" style="fill: var(--color2, #1d1d1d)" d="M20.871 18.034v-3.698h1.734c0.291 0 0.528 0.056 0.712 0.167 0.188 0.111 0.327 0.262 0.419 0.454s0.138 0.41 0.138 0.655c0 0.249-0.054 0.469-0.161 0.66-0.103 0.191-0.253 0.341-0.448 0.448-0.191 0.103-0.419 0.155-0.683 0.155h-0.936v1.16h-0.775zM21.646 16.259h0.775c0.222 0 0.389-0.057 0.5-0.172 0.115-0.119 0.172-0.278 0.172-0.477 0-0.214-0.054-0.377-0.161-0.488-0.107-0.115-0.268-0.172-0.482-0.172h-0.804v1.309z"></path>
<path fill="#1d1d1d" style="fill: var(--color2, #1d1d1d)" d="M25.046 18.091c-0.172 0-0.333-0.031-0.482-0.092-0.145-0.065-0.264-0.159-0.356-0.281-0.088-0.126-0.132-0.283-0.132-0.471 0-0.268 0.094-0.482 0.281-0.643 0.191-0.161 0.473-0.241 0.844-0.241h0.804v-0.075c0-0.168-0.048-0.287-0.144-0.356-0.092-0.069-0.279-0.103-0.563-0.103-0.31 0-0.609 0.048-0.896 0.144v-0.546c0.126-0.050 0.279-0.090 0.459-0.121 0.184-0.034 0.383-0.052 0.597-0.052 0.41 0 0.725 0.084 0.947 0.253 0.226 0.165 0.339 0.431 0.339 0.798v1.728h-0.672l-0.040-0.247c-0.107 0.096-0.239 0.17-0.396 0.224s-0.354 0.080-0.591 0.080zM25.259 17.58c0.172 0 0.322-0.029 0.448-0.086s0.226-0.13 0.299-0.218v-0.431h-0.787c-0.302 0-0.454 0.124-0.454 0.373 0 0.241 0.165 0.362 0.494 0.362z"></path>
<path fill="#1d1d1d" style="fill: var(--color2, #1d1d1d)" d="M27.827 18.034l-0.718-2.722h0.775l0.413 1.769 0.454-1.418v-0.35h0.591l0.517 1.769 0.402-1.769h0.77l-0.712 2.722h-0.712l-0.523-1.591-0.534 1.591h-0.724z"></path>
</symbol>
<symbol id="icon-no-pic" viewBox="0 0 32 32">
<path fill="#f8f8f7" style="fill: var(--color3, #f8f8f7)" d="M22.4 6.4c-1.767 0-3.2 1.433-3.2 3.2s1.433 3.2 3.2 3.2c1.767 0 3.2-1.433 3.2-3.2s-1.433-3.2-3.2-3.2z"></path>
<path fill="#f8f8f7" style="fill: var(--color3, #f8f8f7)" d="M0 3.2v25.6c0 1.767 1.433 3.2 3.2 3.2h25.6c1.219 0 2.28-0.682 2.82-1.686 0.145-0.269 0.252-0.561 0.315-0.869 0.043-0.208 0.065-0.424 0.065-0.645v-25.6c0-1.767-1.433-3.2-3.2-3.2h-25.6c-1.767 0-3.2 1.433-3.2 3.2zM10.345 6.703l-0.745-0.745-7.467 7.467v-10.225c0-0.589 0.478-1.067 1.067-1.067h25.6c0.589 0 1.067 0.478 1.067 1.067v18.133h-4.892l-14.621-14.621c-0.003-0.003-0.006-0.006-0.009-0.009z"></path>
</symbol>
<symbol id="icon-like-white-30" viewBox="0 0 32 32">
<path fill="#fff" style="fill: var(--color4, #fff)" d="M0 16c0-8.837 7.163-16 16-16s16 7.163 16 16c0 8.837-7.163 16-16 16s-16-7.163-16-16zM16 2.133c-7.658 0-13.867 6.208-13.867 13.867s6.208 13.867 13.867 13.867c7.658 0 13.867-6.208 13.867-13.867s-6.208-13.867-13.867-13.867zM10.667 12.8h-2.133v-2.133h2.133v2.133zM23.467 12.8h-2.133v-2.133h2.133v2.133zM9.813 17.707l0.64 0.853c2.773 3.698 8.32 3.698 11.093 0l0.64-0.853 1.707 1.28-0.64 0.853c-3.627 4.836-10.88 4.836-14.507 0l-0.64-0.853 1.707-1.28z"></path>
</symbol>
<symbol id="icon-fav-white-30" viewBox="0 0 32 32">
<path fill="#fff" style="fill: var(--color4, #fff)" d="M8.609 4.267c-3.576 0-6.476 2.899-6.476 6.476 0 1.717 0.682 3.365 1.897 4.579l11.97 11.97 11.97-11.97c1.215-1.214 1.897-2.862 1.897-4.579 0-3.577-2.899-6.476-6.476-6.476-1.717 0-3.365 0.682-4.579 1.897l-2.058 2.058c-0.417 0.417-1.092 0.417-1.508 0l-2.057-2.058c-1.214-1.214-2.862-1.897-4.579-1.897zM0 10.742c0-4.755 3.854-8.609 8.609-8.609 2.283 0 4.473 0.907 6.088 2.522l1.303 1.303 1.303-1.303c1.614-1.615 3.804-2.522 6.088-2.522 4.755 0 8.609 3.854 8.609 8.609 0 2.283-0.907 4.473-2.522 6.088l-12.724 12.724c-0.417 0.417-1.092 0.417-1.508 0l-12.724-12.724c-1.615-1.614-2.522-3.804-2.522-6.088z"></path>
</symbol>
<symbol id="icon-dislike-white-30" viewBox="0 0 32 32">
<path fill="#fff" style="fill: var(--color4, #fff)" d="M0 16c0-8.837 7.163-16 16-16s16 7.163 16 16c0 8.837-7.163 16-16 16s-16-7.163-16-16zM16 2.133c-7.658 0-13.867 6.208-13.867 13.867s6.208 13.867 13.867 13.867c7.658 0 13.867-6.208 13.867-13.867s-6.208-13.867-13.867-13.867zM10.667 12.8h-2.133v-2.133h2.133v2.133zM23.467 12.8h-2.133v-2.133h2.133v2.133zM8.107 21.547l0.64-0.853c3.627-4.836 10.88-4.836 14.507 0l0.64 0.853-1.707 1.28-0.64-0.853c-2.773-3.698-8.32-3.698-11.093 0l-0.64 0.853-1.707-1.28z"></path>
</symbol>
<symbol id="icon-fav-full-white-30" viewBox="0 0 32 32">
<path fill="#fff" style="fill: var(--color4, #fff)" d="M8.609 2.133c-4.755 0-8.609 3.854-8.609 8.609 0 2.283 0.907 4.473 2.522 6.088l12.724 12.724c0.417 0.417 1.092 0.417 1.508 0l12.724-12.724c1.615-1.614 2.522-3.804 2.522-6.088 0-4.755-3.854-8.609-8.609-8.609-2.283 0-4.473 0.907-6.088 2.522l-1.303 1.303-1.303-1.303c-1.614-1.615-3.804-2.522-6.088-2.522z"></path>
</symbol>
<symbol id="icon-like-30" viewBox="0 0 32 32">
<path fill="#ff868e" style="fill: var(--color1, #ff868e)" d="M0 16c0-8.837 7.163-16 16-16s16 7.163 16 16c0 8.837-7.163 16-16 16s-16-7.163-16-16zM16 2.133c-7.658 0-13.867 6.208-13.867 13.867s6.208 13.867 13.867 13.867c7.658 0 13.867-6.208 13.867-13.867s-6.208-13.867-13.867-13.867zM10.667 12.8h-2.133v-2.133h2.133v2.133zM23.467 12.8h-2.133v-2.133h2.133v2.133zM9.813 17.707l0.64 0.853c2.773 3.698 8.32 3.698 11.093 0l0.64-0.853 1.707 1.28-0.64 0.853c-3.627 4.836-10.88 4.836-14.507 0l-0.64-0.853 1.707-1.28z"></path>
</symbol>
<symbol id="icon-fav-30" viewBox="0 0 32 32">
<path fill="#ff868e" style="fill: var(--color1, #ff868e)" d="M8.609 4.267c-3.576 0-6.476 2.899-6.476 6.476 0 1.717 0.682 3.365 1.897 4.579l11.97 11.97 11.97-11.97c1.215-1.214 1.897-2.862 1.897-4.579 0-3.577-2.899-6.476-6.476-6.476-1.717 0-3.365 0.682-4.579 1.897l-2.058 2.058c-0.417 0.417-1.092 0.417-1.508 0l-2.057-2.058c-1.214-1.214-2.862-1.897-4.579-1.897zM0 10.742c0-4.755 3.854-8.609 8.609-8.609 2.283 0 4.473 0.907 6.088 2.522l1.303 1.303 1.303-1.303c1.614-1.615 3.804-2.522 6.088-2.522 4.755 0 8.609 3.854 8.609 8.609 0 2.283-0.907 4.473-2.522 6.088l-12.724 12.724c-0.417 0.417-1.092 0.417-1.508 0l-12.724-12.724c-1.615-1.614-2.522-3.804-2.522-6.088z"></path>
</symbol>
<symbol id="icon-dislike-30" viewBox="0 0 32 32">
<path fill="#ff868e" style="fill: var(--color1, #ff868e)" d="M0 16c0-8.837 7.163-16 16-16s16 7.163 16 16c0 8.837-7.163 16-16 16s-16-7.163-16-16zM16 2.133c-7.658 0-13.867 6.208-13.867 13.867s6.208 13.867 13.867 13.867c7.658 0 13.867-6.208 13.867-13.867s-6.208-13.867-13.867-13.867zM10.667 12.8h-2.133v-2.133h2.133v2.133zM23.467 12.8h-2.133v-2.133h2.133v2.133zM8.107 21.547l0.64-0.853c3.627-4.836 10.88-4.836 14.507 0l0.64 0.853-1.707 1.28-0.64-0.853c-2.773-3.698-8.32-3.698-11.093 0l-0.64 0.853-1.707-1.28z"></path>
</symbol>
<symbol id="icon-like-color-30" viewBox="0 0 32 32">
<path fill="#97eab9" style="fill: var(--color5, #97eab9)" d="M0 16c0-8.837 7.163-16 16-16s16 7.163 16 16c0 8.837-7.163 16-16 16s-16-7.163-16-16zM16 2.133c-7.658 0-13.867 6.208-13.867 13.867s6.208 13.867 13.867 13.867c7.658 0 13.867-6.208 13.867-13.867s-6.208-13.867-13.867-13.867zM10.667 12.8h-2.133v-2.133h2.133v2.133zM23.467 12.8h-2.133v-2.133h2.133v2.133zM9.813 17.707l0.64 0.853c2.773 3.698 8.32 3.698 11.093 0l0.64-0.853 1.707 1.28-0.64 0.853c-3.627 4.836-10.88 4.836-14.507 0l-0.64-0.853 1.707-1.28z"></path>
</symbol>
<symbol id="icon-dislike-color-30" viewBox="0 0 32 32">
<path fill="#ffd280" style="fill: var(--color6, #ffd280)" d="M0 16c0-8.837 7.163-16 16-16s16 7.163 16 16c0 8.837-7.163 16-16 16s-16-7.163-16-16zM16 2.133c-7.658 0-13.867 6.208-13.867 13.867s6.208 13.867 13.867 13.867c7.658 0 13.867-6.208 13.867-13.867s-6.208-13.867-13.867-13.867zM10.667 12.8h-2.133v-2.133h2.133v2.133zM23.467 12.8h-2.133v-2.133h2.133v2.133zM8.107 21.547l0.64-0.853c3.627-4.836 10.88-4.836 14.507 0l0.64 0.853-1.707 1.28-0.64-0.853c-2.773-3.698-8.32-3.698-11.093 0l-0.64 0.853-1.707-1.28z"></path>
</symbol>
<symbol id="icon-fav-color-30" viewBox="0 0 32 32">
<path fill="#ff868e" style="fill: var(--color1, #ff868e)" d="M8.609 2.133c-4.755 0-8.609 3.854-8.609 8.609 0 2.283 0.907 4.473 2.522 6.088l12.724 12.724c0.417 0.417 1.092 0.417 1.508 0l12.724-12.724c1.615-1.614 2.522-3.804 2.522-6.088 0-4.755-3.854-8.609-8.609-8.609-2.283 0-4.473 0.907-6.088 2.522l-1.303 1.303-1.303-1.303c-1.614-1.615-3.804-2.522-6.088-2.522z"></path>
</symbol>
<symbol id="icon-back-white-20" viewBox="0 0 32 32">
<path fill="#fff" style="fill: var(--color4, #fff)" d="M7.536 17.584l13.76 13.759c0.875 0.876 2.294 0.876 3.169 0s0.875-2.294 0-3.169l-12.175-12.175 12.175-12.174c0.875-0.875 0.875-2.294 0-3.169s-2.294-0.875-3.169 0l-13.76 13.759c-0.437 0.438-0.656 1.011-0.656 1.584s0.219 1.147 0.656 1.584z"></path>
</symbol>
<symbol id="icon-search-white-20" viewBox="0 0 32 32">
<path fill="#fff" style="fill: var(--color4, #fff)" d="M30.978 29.147l-7.616-7.921c1.958-2.328 3.031-5.257 3.031-8.306 0-7.124-5.796-12.92-12.92-12.92s-12.92 5.796-12.92 12.92c0 7.124 5.796 12.92 12.92 12.92 2.674 0 5.223-0.807 7.402-2.338l7.674 7.981c0.321 0.333 0.752 0.517 1.214 0.517 0.438 0 0.853-0.167 1.168-0.47 0.67-0.644 0.691-1.713 0.047-2.383zM13.473 3.37c5.266 0 9.55 4.284 9.55 9.55s-4.284 9.55-9.55 9.55-9.55-4.284-9.55-9.55c0-5.266 4.284-9.55 9.55-9.55z"></path>
</symbol>
<symbol id="icon-close-white-20" viewBox="0 0 32 32">
<path fill="#fff" style="fill: var(--color4, #fff)" d="M14.491 16l-12.046-12.046 1.508-1.508 12.046 12.046 12.046-12.046 1.508 1.508-12.046 12.046 12.046 12.046-1.508 1.508-12.046-12.046-12.046 12.046-1.508-1.508 12.046-12.046z"></path>
</symbol>
<symbol id="icon-fav-white-20" viewBox="0 0 32 32">
<path fill="#fff" style="fill: var(--color4, #fff)" d="M8.609 3.733c-3.576 0-6.476 2.899-6.476 6.476 0 1.717 0.682 3.365 1.897 4.579l11.97 11.97 11.97-11.97c1.214-1.214 1.897-2.862 1.897-4.579 0-3.576-2.899-6.476-6.476-6.476-1.717 0-3.365 0.682-4.579 1.897l-2.058 2.058c-0.416 0.417-1.092 0.417-1.508 0l-2.058-2.058c-1.214-1.214-2.862-1.897-4.579-1.897zM0 10.209c0-4.755 3.854-8.609 8.609-8.609 2.283 0 4.473 0.907 6.088 2.522l1.303 1.303 1.303-1.303c1.614-1.615 3.804-2.522 6.088-2.522 4.755 0 8.609 3.854 8.609 8.609 0 2.283-0.907 4.473-2.522 6.087l-12.724 12.724c-0.416 0.416-1.092 0.416-1.508 0l-12.724-12.724c-1.615-1.614-2.522-3.804-2.522-6.088z"></path>
</symbol>
<symbol id="icon-fav-full-white-20" viewBox="0 0 32 32">
<path fill="#fff" style="fill: var(--color4, #fff)" d="M8.609 1.6c-4.755 0-8.609 3.854-8.609 8.609 0 2.283 0.907 4.473 2.522 6.087l12.724 12.724c0.417 0.416 1.092 0.416 1.508 0l12.724-12.724c1.615-1.614 2.522-3.804 2.522-6.088 0-4.755-3.854-8.609-8.609-8.609-2.283 0-4.473 0.907-6.088 2.522l-1.303 1.303-1.303-1.303c-1.615-1.615-3.804-2.522-6.088-2.522z"></path>
</symbol>
<symbol id="icon-update-white-20" viewBox="0 0 32 32">
<path fill="#fff" style="fill: var(--color4, #fff)" d="M15.171 4l-2.477-2.475 1.524-1.525 5.074 5.071-5.074 5.071-1.524-1.525 2.461-2.46c-6.336 0.24-11.4 5.451-11.4 11.839 0 6.541 5.309 11.848 11.856 11.848s11.856-5.307 11.856-11.848v-1.078h2.156v1.078c0 7.733-6.276 14.004-14.012 14.004s-14.012-6.27-14.012-14.004c0-7.586 6.038-13.764 13.571-13.997z"></path>
</symbol>
<symbol id="icon-upload-white-16" viewBox="0 0 32 32">
<path fill="#fff" style="fill: var(--color4, #fff)" d="M15.732 0l8.739 8.067-1.645 1.782-5.847-5.398v20.272h-2.425v-20.114l-5.206 5.206-1.715-1.715 8.1-8.1zM2.425 29.575v-14.553h-2.425v16.978h31.531v-16.978h-2.425v14.553h-26.68z"></path>
</symbol>
<symbol id="icon-back-20" viewBox="0 0 32 32">
<path fill="#ff868e" style="fill: var(--color1, #ff868e)" d="M7.536 17.584l13.76 13.759c0.875 0.876 2.294 0.876 3.169 0s0.875-2.294 0-3.169l-12.175-12.175 12.175-12.174c0.875-0.875 0.875-2.294 0-3.169s-2.294-0.875-3.169 0l-13.76 13.759c-0.437 0.438-0.656 1.011-0.656 1.584s0.219 1.147 0.656 1.584z"></path>
</symbol>
<symbol id="icon-search-20" viewBox="0 0 32 32">
<path fill="#ff868e" style="fill: var(--color1, #ff868e)" d="M30.978 29.147l-7.616-7.921c1.958-2.328 3.031-5.257 3.031-8.306 0-7.124-5.796-12.92-12.92-12.92s-12.92 5.796-12.92 12.92c0 7.124 5.796 12.92 12.92 12.92 2.674 0 5.223-0.807 7.402-2.338l7.674 7.981c0.321 0.333 0.752 0.517 1.214 0.517 0.438 0 0.853-0.167 1.168-0.47 0.67-0.644 0.691-1.713 0.047-2.383zM13.473 3.37c5.266 0 9.55 4.284 9.55 9.55s-4.284 9.55-9.55 9.55-9.55-4.284-9.55-9.55c0-5.266 4.284-9.55 9.55-9.55z"></path>
</symbol>
<symbol id="icon-close-20" viewBox="0 0 32 32">
<path fill="#ff868e" style="fill: var(--color1, #ff868e)" d="M14.491 16l-12.046-12.046 1.508-1.508 12.046 12.046 12.046-12.046 1.508 1.508-12.046 12.046 12.046 12.046-1.508 1.508-12.046-12.046-12.046 12.046-1.508-1.508 12.046-12.046z"></path>
</symbol>
<symbol id="icon-fav-20" viewBox="0 0 32 32">
<path fill="#ff868e" style="fill: var(--color1, #ff868e)" d="M8.609 3.733c-3.576 0-6.476 2.899-6.476 6.476 0 1.717 0.682 3.365 1.897 4.579l11.97 11.97 11.97-11.97c1.214-1.214 1.897-2.862 1.897-4.579 0-3.576-2.899-6.476-6.476-6.476-1.717 0-3.365 0.682-4.579 1.897l-2.058 2.058c-0.416 0.417-1.092 0.417-1.508 0l-2.058-2.058c-1.214-1.214-2.862-1.897-4.579-1.897zM0 10.209c0-4.755 3.854-8.609 8.609-8.609 2.283 0 4.473 0.907 6.088 2.522l1.303 1.303 1.303-1.303c1.614-1.615 3.804-2.522 6.088-2.522 4.755 0 8.609 3.854 8.609 8.609 0 2.283-0.907 4.473-2.522 6.087l-12.724 12.724c-0.416 0.416-1.092 0.416-1.508 0l-12.724-12.724c-1.615-1.614-2.522-3.804-2.522-6.088z"></path>
</symbol>
<symbol id="icon-fav-color-20" viewBox="0 0 32 32">
<path fill="#ff868e" style="fill: var(--color1, #ff868e)" d="M8.609 1.6c-4.755 0-8.609 3.854-8.609 8.609 0 2.283 0.907 4.473 2.522 6.087l12.724 12.724c0.417 0.416 1.092 0.416 1.508 0l12.724-12.724c1.615-1.614 2.522-3.804 2.522-6.088 0-4.755-3.854-8.609-8.609-8.609-2.283 0-4.473 0.907-6.088 2.522l-1.303 1.303-1.303-1.303c-1.615-1.615-3.804-2.522-6.088-2.522z"></path>
</symbol>
<symbol id="icon-update-20" viewBox="0 0 32 32">
<path fill="#ff868e" style="fill: var(--color1, #ff868e)" d="M15.171 4l-2.477-2.475 1.524-1.525 5.074 5.071-5.074 5.071-1.524-1.525 2.461-2.46c-6.336 0.24-11.4 5.451-11.4 11.839 0 6.541 5.309 11.848 11.856 11.848s11.856-5.307 11.856-11.848v-1.078h2.156v1.078c0 7.733-6.276 14.004-14.012 14.004s-14.012-6.27-14.012-14.004c0-7.586 6.038-13.764 13.571-13.997z"></path>
</symbol>
<symbol id="icon-sort-20" viewBox="0 0 32 32">
<path fill="#8c8c8c" style="fill: var(--color7, #8c8c8c)" d="M6.4 0.312l-6.4 6.4 1.508 1.508 4.579-4.579v28.358h2.133v-28.358l4.579 4.579 1.508-1.508-6.4-6.4c-0.417-0.417-1.092-0.417-1.508 0zM24.221 2.133c-1.767 0-3.2 1.433-3.2 3.2v3.2h6.4v-3.2c0-1.767-1.433-3.2-3.2-3.2zM27.421 10.667v4.267h2.133v-9.6c0-2.946-2.388-5.333-5.333-5.333s-5.333 2.388-5.333 5.333v9.6h2.133v-4.267h6.4zM18.888 17.067h6.4c2.356 0 4.267 1.91 4.267 4.267 0 1.274-0.559 2.418-1.444 3.2 0.886 0.782 1.444 1.926 1.444 3.2 0 2.356-1.91 4.267-4.267 4.267h-6.4v-14.933zM25.288 23.467c1.178 0 2.133-0.955 2.133-2.133s-0.955-2.133-2.133-2.133h-4.267v4.267h4.267zM21.021 25.6h4.267c1.178 0 2.133 0.955 2.133 2.133s-0.955 2.133-2.133 2.133h-4.267v-4.267z"></path>
</symbol>
<symbol id="icon-sort-revert-20" viewBox="0 0 32 32">
<path fill="#8c8c8c" style="fill: var(--color7, #8c8c8c)" d="M6.088 28.358l-4.579-4.579-1.508 1.508 6.4 6.4c0.2 0.2 0.471 0.312 0.754 0.312s0.554-0.112 0.754-0.312l6.4-6.4-1.508-1.508-4.579 4.579v-28.358h-2.133v28.358zM24.221 2.133c-1.767 0-3.2 1.433-3.2 3.2v3.2h6.4v-3.2c0-1.767-1.433-3.2-3.2-3.2zM27.421 10.667v4.267h2.133v-9.6c0-2.946-2.388-5.333-5.333-5.333s-5.333 2.388-5.333 5.333v9.6h2.133v-4.267h6.4zM18.888 17.067h6.4c2.356 0 4.267 1.91 4.267 4.267 0 1.274-0.559 2.418-1.444 3.2 0.886 0.782 1.444 1.926 1.444 3.2 0 2.356-1.91 4.267-4.267 4.267h-6.4v-14.933zM25.288 23.467c1.178 0 2.133-0.955 2.133-2.133s-0.955-2.133-2.133-2.133h-4.267v4.267h4.267zM21.021 25.6h4.267c1.178 0 2.133 0.955 2.133 2.133s-0.955 2.133-2.133 2.133h-4.267v-4.267z"></path>
</symbol>
<symbol id="icon-sort-color-20" viewBox="0 0 32 32">
<path fill="#ff868e" style="fill: var(--color1, #ff868e)" d="M6.4 0.312l-6.4 6.4 1.508 1.508 4.579-4.579v28.358h2.133v-28.358l4.579 4.579 1.508-1.508-6.4-6.4c-0.417-0.417-1.092-0.417-1.508 0zM24.221 2.133c-1.767 0-3.2 1.433-3.2 3.2v3.2h6.4v-3.2c0-1.767-1.433-3.2-3.2-3.2zM27.421 10.667v4.267h2.133v-9.6c0-2.946-2.388-5.333-5.333-5.333s-5.333 2.388-5.333 5.333v9.6h2.133v-4.267h6.4zM18.888 17.067h6.4c2.356 0 4.267 1.91 4.267 4.267 0 1.274-0.559 2.418-1.444 3.2 0.886 0.782 1.444 1.926 1.444 3.2 0 2.356-1.91 4.267-4.267 4.267h-6.4v-14.933zM25.288 23.467c1.178 0 2.133-0.955 2.133-2.133s-0.955-2.133-2.133-2.133h-4.267v4.267h4.267zM21.021 25.6h4.267c1.178 0 2.133 0.955 2.133 2.133s-0.955 2.133-2.133 2.133h-4.267v-4.267z"></path>
</symbol>
<symbol id="icon-sort-revert-color-20" viewBox="0 0 32 32">
<path fill="#ff868e" style="fill: var(--color1, #ff868e)" d="M6.088 28.358l-4.579-4.579-1.508 1.508 6.4 6.4c0.2 0.2 0.471 0.312 0.754 0.312s0.554-0.112 0.754-0.312l6.4-6.4-1.508-1.508-4.579 4.579v-28.358h-2.133v28.358zM24.221 2.133c-1.767 0-3.2 1.433-3.2 3.2v3.2h6.4v-3.2c0-1.767-1.433-3.2-3.2-3.2zM27.421 10.667v4.267h2.133v-9.6c0-2.946-2.388-5.333-5.333-5.333s-5.333 2.388-5.333 5.333v9.6h2.133v-4.267h6.4zM18.888 17.067h6.4c2.356 0 4.267 1.91 4.267 4.267 0 1.274-0.559 2.418-1.444 3.2 0.886 0.782 1.444 1.926 1.444 3.2 0 2.356-1.91 4.267-4.267 4.267h-6.4v-14.933zM25.288 23.467c1.178 0 2.133-0.955 2.133-2.133s-0.955-2.133-2.133-2.133h-4.267v4.267h4.267zM21.021 25.6h4.267c1.178 0 2.133 0.955 2.133 2.133s-0.955 2.133-2.133 2.133h-4.267v-4.267z"></path>
</symbol>
<symbol id="icon-like-color-20" viewBox="0 0 32 32">
<path fill="#97eab9" style="fill: var(--color5, #97eab9)" d="M0 16c0-8.837 7.163-16 16-16s16 7.163 16 16c0 8.836-7.164 16-16 16s-16-7.164-16-16zM16 2.133c-7.658 0-13.867 6.208-13.867 13.867s6.208 13.867 13.867 13.867c7.658 0 13.867-6.208 13.867-13.867s-6.208-13.867-13.867-13.867zM10.667 12.8h-2.133v-2.133h2.133v2.133zM23.467 12.8h-2.133v-2.133h2.133v2.133zM9.813 17.707l0.64 0.853c2.773 3.698 8.32 3.698 11.093 0l0.64-0.853 1.707 1.28-0.64 0.853c-3.627 4.836-10.88 4.836-14.507 0l-0.64-0.853 1.707-1.28z"></path>
</symbol>
<symbol id="icon-dislike-color-20" viewBox="0 0 32 32">
<path fill="#ffd280" style="fill: var(--color6, #ffd280)" d="M0 16c0-8.837 7.163-16 16-16s16 7.163 16 16c0 8.836-7.164 16-16 16s-16-7.164-16-16zM16 2.133c-7.658 0-13.867 6.208-13.867 13.867s6.208 13.867 13.867 13.867c7.658 0 13.867-6.208 13.867-13.867s-6.208-13.867-13.867-13.867zM10.667 12.8h-2.133v-2.133h2.133v2.133zM23.467 12.8h-2.133v-2.133h2.133v2.133zM8.107 21.547l0.64-0.853c3.627-4.835 10.88-4.835 14.507 0l0.64 0.853-1.707 1.28-0.64-0.853c-2.773-3.698-8.32-3.698-11.093 0l-0.64 0.853-1.707-1.28z"></path>
</symbol>
<symbol id="icon-success-20" viewBox="0 0 32 32">
<path fill="#97eab9" style="fill: var(--color5, #97eab9)" d="M0 16c0-8.837 7.163-16 16-16s16 7.163 16 16c0 8.836-7.164 16-16 16s-16-7.164-16-16zM16 2.133c-7.658 0-13.867 6.208-13.867 13.867s6.208 13.867 13.867 13.867c7.658 0 13.867-6.208 13.867-13.867s-6.208-13.867-13.867-13.867zM24.3 11.333l-9.213 11.516-7.236-6.030 1.366-1.639 5.564 4.637 7.854-9.817 1.666 1.333z"></path>
</symbol>
<symbol id="icon-error-20" viewBox="0 0 32 32">
<path fill="#ff868e" style="fill: var(--color1, #ff868e)" d="M0 16c0-8.837 7.163-16 16-16s16 7.163 16 16c0 8.836-7.164 16-16 16s-16-7.164-16-16zM16 2.133c-7.658 0-13.867 6.208-13.867 13.867s6.208 13.867 13.867 13.867c7.658 0 13.867-6.208 13.867-13.867s-6.208-13.867-13.867-13.867zM14.492 16l-5.646-5.646 1.508-1.508 5.646 5.646 5.646-5.646 1.508 1.508-5.646 5.646 5.646 5.646-1.508 1.508-5.646-5.646-5.646 5.646-1.508-1.508 5.646-5.646z"></path>
</symbol>
<symbol id="icon-upload-16" viewBox="0 0 32 32">
<path fill="#ff868e" style="fill: var(--color1, #ff868e)" d="M15.732 0l8.739 8.067-1.645 1.782-5.847-5.398v20.272h-2.425v-20.114l-5.206 5.206-1.715-1.715 8.1-8.1zM2.425 29.575v-14.553h-2.425v16.978h31.531v-16.978h-2.425v14.553h-26.68z"></path>
</symbol>
<symbol id="icon-dropdown-12" viewBox="0 0 32 32">
<path fill="#8c8c8c" style="fill: var(--color7, #8c8c8c)" d="M17.584 24.464l13.759-13.76c0.875-0.875 0.875-2.294 0-3.169s-2.294-0.875-3.169 0l-12.175 12.175-12.174-12.175c-0.875-0.875-2.294-0.875-3.169 0s-0.875 2.294 0 3.169l13.759 13.76c0.438 0.438 1.011 0.656 1.584 0.656s1.147-0.219 1.584-0.656z"></path>
</symbol>
</defs>
</svg>
